<svg width="34" height="38" viewBox="0 0 34 38" fill="none" xmlns="http://www.w3.org/2000/svg">
    <path d="M4.50814 37.6879C3.88457 37.6868 3.27204 37.5233 2.7308 37.2136C1.51205 36.523 0.754395 35.1824 0.754395 33.727V4.27386C0.754395 2.81441 1.51205 1.47785 2.7308 0.78722C3.28493 0.468757 3.91443 0.304987 4.5535 0.313027C5.19257 0.321066 5.81775 0.500621 6.36369 0.832924L31.536 15.9007C32.0606 16.2297 32.493 16.6865 32.7928 17.2283C33.0926 17.7701 33.2499 18.3792 33.2499 18.9984C33.2499 19.6176 33.0926 20.2267 32.7928 20.7685C32.493 21.3103 32.0606 21.7671 31.536 22.0961L6.35963 37.1679C5.80093 37.5057 5.161 37.6854 4.50814 37.6879Z" fill="white" />
</svg>