<svg width="16" height="16" viewBox="0 0 16 16" fill="none" xmlns="http://www.w3.org/2000/svg">
<path fill-rule="evenodd" clip-rule="evenodd" d="M2.6844 2.43572C3.04602 2.1353 3.50271 2 4 2H12C12.4769 2 12.9315 2.12487 13.2974 2.41874C13.6643 2.71334 13.8942 3.13943 13.9905 3.65266L14.9893 8.39699C14.9964 8.43087 15 8.46539 15 8.5V12L15 12.0015C14.9985 12.531 14.7874 13.0385 14.4129 13.4129C14.0385 13.7874 13.531 13.9985 13.0015 14L13 14H3L2.99855 14C2.46897 13.9985 1.96153 13.7874 1.58706 13.4129C1.21259 13.0385 1.00154 12.531 1 12.0015L1 12V8.5C1 8.46539 1.00359 8.43087 1.01073 8.39699L2.00987 3.65107C2.10533 3.15901 2.32417 2.73498 2.6844 2.43572ZM3.32342 3.20491C3.17693 3.32661 3.05226 3.5259 2.991 3.84442C2.99045 3.84729 2.98988 3.85015 2.98927 3.85301L2 8.55206V11.9992C2.00094 12.2643 2.10668 12.5183 2.29417 12.7058C2.48167 12.8933 2.73571 12.9991 3.00086 13H12.9991C13.2643 12.9991 13.5183 12.8933 13.7058 12.7058C13.8933 12.5183 13.9991 12.2643 14 11.9991V8.55206L13.0107 3.85301C13.0099 3.84903 13.0091 3.84504 13.0084 3.84104C12.9477 3.51334 12.8186 3.31671 12.6713 3.19845C12.5216 3.07825 12.3044 3 12 3H4C3.68479 3 3.46961 3.08345 3.32342 3.20491Z" fill="#1A1A1A"/>
<path fill-rule="evenodd" clip-rule="evenodd" d="M1 8.5C1 8.22386 1.22386 8 1.5 8H6C6.27614 8 6.5 8.22386 6.5 8.5C6.5 8.77614 6.27614 9 6 9H1.5C1.22386 9 1 8.77614 1 8.5Z" fill="#1A1A1A"/>
<path fill-rule="evenodd" clip-rule="evenodd" d="M9.5 8.5C9.5 8.22386 9.72386 8 10 8H14.5C14.7761 8 15 8.22386 15 8.5C15 8.77614 14.7761 9 14.5 9H10C9.72386 9 9.5 8.77614 9.5 8.5Z" fill="#1A1A1A"/>
<path fill-rule="evenodd" clip-rule="evenodd" d="M6 8C6.27614 8 6.5 8.22386 6.5 8.5C6.5 8.89782 6.65804 9.27936 6.93934 9.56066C7.22064 9.84196 7.60218 10 8 10C8.39782 10 8.77936 9.84196 9.06066 9.56066C9.34196 9.27936 9.5 8.89782 9.5 8.5C9.5 8.22386 9.72386 8 10 8C10.2761 8 10.5 8.22386 10.5 8.5C10.5 9.16304 10.2366 9.79893 9.76777 10.2678C9.29893 10.7366 8.66304 11 8 11C7.33696 11 6.70107 10.7366 6.23223 10.2678C5.76339 9.79893 5.5 9.16304 5.5 8.5C5.5 8.22386 5.72386 8 6 8Z" fill="#1A1A1A"/>
<path fill-rule="evenodd" clip-rule="evenodd" d="M4 4.5C4 4.22386 4.22386 4 4.5 4H11.5C11.7761 4 12 4.22386 12 4.5C12 4.77614 11.7761 5 11.5 5H4.5C4.22386 5 4 4.77614 4 4.5Z" fill="#1A1A1A"/>
<path fill-rule="evenodd" clip-rule="evenodd" d="M3.5 6.5C3.5 6.22386 3.72386 6 4 6H12C12.2761 6 12.5 6.22386 12.5 6.5C12.5 6.77614 12.2761 7 12 7H4C3.72386 7 3.5 6.77614 3.5 6.5Z" fill="#1A1A1A"/>
</svg>
