<svg width="21" height="20" viewBox="0 0 21 20" fill="none" xmlns="http://www.w3.org/2000/svg">
<path fill-rule="evenodd" clip-rule="evenodd" d="M5.8125 7.5C5.56386 7.5 5.3254 7.59877 5.14959 7.77459C4.97377 7.9504 4.875 8.18886 4.875 8.4375V16.5625C4.875 16.8111 4.97377 17.0496 5.14959 17.2254C5.3254 17.4012 5.56386 17.5 5.8125 17.5H15.1875C15.4361 17.5 15.6746 17.4012 15.8504 17.2254C16.0262 17.0496 16.125 16.8111 16.125 16.5625V8.4375C16.125 8.18886 16.0262 7.9504 15.8504 7.77459C15.6746 7.59877 15.4361 7.5 15.1875 7.5H13.625C13.2798 7.5 13 7.22018 13 6.875C13 6.52982 13.2798 6.25 13.625 6.25H15.1875C15.7677 6.25 16.3241 6.48047 16.7343 6.8907C17.1445 7.30094 17.375 7.85734 17.375 8.4375V16.5625C17.375 17.1427 17.1445 17.6991 16.7343 18.1093C16.3241 18.5195 15.7677 18.75 15.1875 18.75H5.8125C5.23234 18.75 4.67594 18.5195 4.2657 18.1093C3.85547 17.6991 3.625 17.1427 3.625 16.5625V8.4375C3.625 7.85734 3.85547 7.30094 4.2657 6.8907C4.67594 6.48047 5.23234 6.25 5.8125 6.25H7.375C7.72018 6.25 8 6.52982 8 6.875C8 7.22018 7.72018 7.5 7.375 7.5H5.8125Z" fill="white"/>
<path fill-rule="evenodd" clip-rule="evenodd" d="M6.93306 10.1831C7.17714 9.93898 7.57286 9.93898 7.81694 10.1831L10.5 12.8661L13.1831 10.1831C13.4271 9.93898 13.8229 9.93898 14.0669 10.1831C14.311 10.4271 14.311 10.8229 14.0669 11.0669L10.9419 14.1919C10.6979 14.436 10.3021 14.436 10.0581 14.1919L6.93306 11.0669C6.68898 10.8229 6.68898 10.4271 6.93306 10.1831Z" fill="white"/>
<path fill-rule="evenodd" clip-rule="evenodd" d="M10.5 1.25C10.8452 1.25 11.125 1.52982 11.125 1.875V13.125C11.125 13.4702 10.8452 13.75 10.5 13.75C10.1548 13.75 9.875 13.4702 9.875 13.125V1.875C9.875 1.52982 10.1548 1.25 10.5 1.25Z" fill="white"/>
</svg>

