<svg width="16" height="16" viewBox="0 0 16 16" fill="none" xmlns="http://www.w3.org/2000/svg">
<path fill-rule="evenodd" clip-rule="evenodd" d="M7.84467 13.0303C7.55178 12.7374 7.55178 12.2626 7.84467 11.9697L11.8143 8L7.84467 4.03033C7.55178 3.73744 7.55178 3.26256 7.84467 2.96967C8.13756 2.67678 8.61244 2.67678 8.90533 2.96967L13.4053 7.46967C13.6982 7.76256 13.6982 8.23744 13.4053 8.53033L8.90533 13.0303C8.61244 13.3232 8.13756 13.3232 7.84467 13.0303Z" fill="white"/>
<path fill-rule="evenodd" clip-rule="evenodd" d="M13 8C13 8.41421 12.6642 8.75 12.25 8.75L3.125 8.75C2.71079 8.75 2.375 8.41421 2.375 8C2.375 7.58579 2.71079 7.25 3.125 7.25L12.25 7.25C12.6642 7.25 13 7.58579 13 8Z" fill="white"/>
</svg>
