<svg width="16" height="16" viewBox="0 0 16 16" fill="none" xmlns="http://www.w3.org/2000/svg">
    <path d="M10.9999 1.8833C9.83992 1.8833 8.72659 2.4233 7.99992 3.27663C7.27325 2.4233 6.15992 1.8833 4.99992 1.8833C2.94659 1.8833 1.33325 3.49663 1.33325 5.54997C1.33325 8.06997 3.59992 10.1233 7.03325 13.2433L7.99992 14.1166L8.96659 13.2366C12.3999 10.1233 14.6666 8.06997 14.6666 5.54997C14.6666 3.49663 13.0533 1.8833 10.9999 1.8833ZM8.06659 12.25L7.99992 12.3166L7.93325 12.25C4.75992 9.37663 2.66659 7.47663 2.66659 5.54997C2.66659 4.21663 3.66659 3.21663 4.99992 3.21663C6.02659 3.21663 7.02659 3.87663 7.37992 4.78997L8.62659 4.78997C8.97325 3.87663 9.97325 3.21663 10.9999 3.21663C12.3333 3.21663 13.3333 4.21663 13.3333 5.54997C13.3333 7.47663 11.2399 9.37663 8.06659 12.25Z" fill="#E6E6E6" />
</svg>