<svg width="16" height="17" viewBox="0 0 16 17" fill="none" xmlns="http://www.w3.org/2000/svg">
    <path d="M13.9427 4.36279H7.99986L6.95243 3.30529C6.67015 3.02029 6.29129 2.86279 5.89757 2.86279H2.057C1.23986 2.86279 0.578718 3.53779 0.578718 4.36279L0.571289 13.3628C0.571289 14.1878 1.23986 14.8628 2.057 14.8628H13.9427C14.7599 14.8628 15.4284 14.1878 15.4284 13.3628V5.86279C15.4284 5.03779 14.7599 4.36279 13.9427 4.36279ZM12.457 8.86279H10.9713V10.3628H12.457V11.8628H10.9713V13.3628H9.48557V11.8628H10.9713V10.3628H9.48557V8.86279H10.9713V7.36279H9.48557V5.86279H10.9713V7.36279H12.457V8.86279Z" fill="#FFDC82" />
</svg>