<svg width="16" height="16" viewBox="0 0 16 16" fill="none" xmlns="http://www.w3.org/2000/svg">
<path d="M8.63273 1.83466L4.9394 5.52799C4.69273 5.77466 4.55273 6.11466 4.55273 6.46799V13.128C4.55273 13.8613 5.15273 14.4613 5.88607 14.4613H11.8861C12.4194 14.4613 12.8994 14.1413 13.1127 13.6547L15.2861 8.58132C15.8461 7.26132 14.8794 5.79466 13.4461 5.79466H9.6794L10.3127 2.74132C10.3794 2.40799 10.2794 2.06799 10.0394 1.82799C9.64607 1.44132 9.0194 1.44132 8.63273 1.83466ZM1.88607 14.4613C2.6194 14.4613 3.2194 13.8613 3.2194 13.128V7.79466C3.2194 7.06132 2.6194 6.46132 1.88607 6.46132C1.15273 6.46132 0.552734 7.06132 0.552734 7.79466V13.128C0.552734 13.8613 1.15273 14.4613 1.88607 14.4613Z" fill="#F47E37"/>
</svg>
