<svg width="25" height="24" viewBox="0 0 25 24" fill="none" xmlns="http://www.w3.org/2000/svg">
<path fill-rule="evenodd" clip-rule="evenodd" d="M3.23633 3C3.13277 3 3.04883 3.08395 3.04883 3.1875V9.5625C3.04883 9.66605 3.13277 9.75 3.23633 9.75H9.61133C9.71488 9.75 9.79883 9.66605 9.79883 9.5625V3.1875C9.79883 3.08395 9.71488 3 9.61133 3H3.23633ZM1.54883 3.1875C1.54883 2.25552 2.30435 1.5 3.23633 1.5H9.61133C10.5433 1.5 11.2988 2.25552 11.2988 3.1875V9.5625C11.2988 10.4945 10.5433 11.25 9.61133 11.25H3.23633C2.30435 11.25 1.54883 10.4945 1.54883 9.5625V3.1875Z" fill="#4D4D4D"/>
<path fill-rule="evenodd" clip-rule="evenodd" d="M14.4863 3C14.3828 3 14.2988 3.08395 14.2988 3.1875V9.5625C14.2988 9.66605 14.3828 9.75 14.4863 9.75H20.8613C20.9649 9.75 21.0488 9.66605 21.0488 9.5625V3.1875C21.0488 3.08395 20.9649 3 20.8613 3H14.4863ZM12.7988 3.1875C12.7988 2.25552 13.5543 1.5 14.4863 1.5H20.8613C21.7933 1.5 22.5488 2.25552 22.5488 3.1875V9.5625C22.5488 10.4945 21.7933 11.25 20.8613 11.25H14.4863C13.5543 11.25 12.7988 10.4945 12.7988 9.5625V3.1875Z" fill="#4D4D4D"/>
<path fill-rule="evenodd" clip-rule="evenodd" d="M3.23633 14.25C3.13277 14.25 3.04883 14.3339 3.04883 14.4375V20.8125C3.04883 20.9161 3.13277 21 3.23633 21H9.61133C9.71488 21 9.79883 20.9161 9.79883 20.8125V14.4375C9.79883 14.3339 9.71488 14.25 9.61133 14.25H3.23633ZM1.54883 14.4375C1.54883 13.5055 2.30435 12.75 3.23633 12.75H9.61133C10.5433 12.75 11.2988 13.5055 11.2988 14.4375V20.8125C11.2988 21.7445 10.5433 22.5 9.61133 22.5H3.23633C2.30435 22.5 1.54883 21.7445 1.54883 20.8125V14.4375Z" fill="#4D4D4D"/>
<path fill-rule="evenodd" clip-rule="evenodd" d="M14.4863 14.25C14.3828 14.25 14.2988 14.3339 14.2988 14.4375V20.8125C14.2988 20.9161 14.3828 21 14.4863 21H20.8613C20.9649 21 21.0488 20.9161 21.0488 20.8125V14.4375C21.0488 14.3339 20.9649 14.25 20.8613 14.25H14.4863ZM12.7988 14.4375C12.7988 13.5055 13.5543 12.75 14.4863 12.75H20.8613C21.7933 12.75 22.5488 13.5055 22.5488 14.4375V20.8125C22.5488 21.7445 21.7933 22.5 20.8613 22.5H14.4863C13.5543 22.5 12.7988 21.7445 12.7988 20.8125V14.4375Z" fill="#4D4D4D"/>
</svg>
