<svg width="23" height="24" viewBox="0 0 23 24" fill="none" xmlns="http://www.w3.org/2000/svg">
    <mask id="mask0_803_50005" style="mask-type:alpha" maskUnits="userSpaceOnUse" x="0" y="0" width="16" height="24">
        <rect x="0.700195" y="0.5" width="13.9999" height="23" fill="#C4C4C4" stroke="url(#paint0_linear_803_50005)" />
    </mask>
    <g mask="url(#mask0_803_50005)">
        <path d="M7.47826 1.17547L13.4058 12.7029C13.5672 13.0424 13.8705 14.1098 13.591 15.3466C13.3125 16.5793 12.5284 17.4255 12.212 17.6674C12.2038 17.6737 12.1958 17.6802 12.188 17.687L7.01153 22.1785L1.38929 11.1816C1.38435 11.1719 1.3791 11.1624 1.37354 11.1531C1.2756 10.9889 1.09783 10.5777 0.983165 10.0273C0.86967 9.48241 0.825368 8.83536 0.961015 8.1917C1.24241 6.85646 2.01919 5.90124 2.39768 5.57272C2.39776 5.57266 2.39783 5.57259 2.3979 5.57253L7.47826 1.17547Z" stroke="#40ACC2" stroke-linejoin="round" />
    </g>
    <path d="M9.44231 9.31078L6.68906 22.6211C6.62359 22.9376 6.87103 23.2321 7.19405 23.2221L14.13 23.009C14.7408 22.9895 16.0944 22.6963 17.2858 21.7164C18.4771 20.7365 18.9872 19.2434 19.0637 18.7092L21.7152 6.0383C21.7815 5.72127 21.5335 5.42579 21.2098 5.43615L14.1362 5.66249C13.6279 5.64672 12.3279 5.84144 11.1943 6.74647C10.0607 7.6515 9.55397 8.83311 9.44231 9.31078Z" fill="#F37021" />
    <defs>
        <linearGradient id="paint0_linear_803_50005" x1="7.59314" y1="24.8623" x2="7.59314" y2="0.862315" gradientUnits="userSpaceOnUse">
            <stop stop-color="#01508E" />
            <stop offset="1" stop-color="#40ACC2" />
        </linearGradient>
    </defs>
</svg>