<svg width="16" height="17" viewBox="0 0 16 17" fill="none" xmlns="http://www.w3.org/2000/svg">
    <g clip-path="url(#clip0_814_50222)">
        <path d="M10.0599 5.90524C9.52267 5.90524 9.08558 5.46715 9.08558 4.92868V1.71997H4.10242C3.25816 1.71997 2.57129 2.40839 2.57129 3.25457V14.4711C2.57129 15.3173 3.25816 16.0057 4.10242 16.0057H11.8973C12.7416 16.0057 13.4284 15.3173 13.4284 14.4711V5.90524H10.0599ZM4.85407 11.7646H6.87851C7.10913 11.7646 7.2961 11.952 7.2961 12.1831C7.2961 12.4143 7.10913 12.6017 6.87851 12.6017H4.85407C4.62346 12.6017 4.43649 12.4143 4.43649 12.1831C4.43649 11.952 4.62346 11.7646 4.85407 11.7646ZM4.43649 9.951C4.43649 9.71986 4.62346 9.53247 4.85407 9.53247H10.9786C11.2092 9.53247 11.3962 9.71986 11.3962 9.951C11.3962 10.1821 11.2092 10.3695 10.9786 10.3695H4.85407C4.62346 10.3695 4.43649 10.1821 4.43649 9.951ZM10.9786 7.30033C11.2092 7.30033 11.3962 7.48772 11.3962 7.71885C11.3962 7.94999 11.2092 8.13738 10.9786 8.13738H4.85407C4.62346 8.13738 4.43649 7.94999 4.43649 7.71885C4.43649 7.48772 4.62346 7.30033 4.85407 7.30033H10.9786Z" fill="#87C0FF" />
        <path d="M10.1562 4.45647C10.1562 4.54263 10.2263 4.61272 10.3125 4.61272H13.8848C13.7991 4.45441 13.6888 4.309 13.5562 4.1836L10.543 1.33291C10.4261 1.22229 10.2958 1.13 10.1563 1.05713V4.45647H10.1562Z" fill="#87C0FF" />
    </g>
    <defs>
        <clipPath id="clip0_814_50222">
            <rect width="16" height="16" fill="white" transform="translate(0 0.862793)" />
        </clipPath>
    </defs>
</svg>