<svg width="24" height="24" viewBox="0 0 24 24" fill="none" xmlns="http://www.w3.org/2000/svg">
<mask id="mask0_901_55274" style="mask-type:alpha" maskUnits="userSpaceOnUse" x="1" y="0" width="16" height="24">
<rect x="1.7" y="0.5" width="13.9999" height="23" fill="#C4C4C4" stroke="url(#paint0_linear_901_55274)"/>
</mask>
<g mask="url(#mask0_901_55274)">
<path d="M8.47828 1.17547L14.4058 12.7029C14.5672 13.0424 14.8705 14.1098 14.5911 15.3466C14.3125 16.5793 13.5284 17.4255 13.212 17.6674C13.2038 17.6737 13.1958 17.6802 13.188 17.687L8.01154 22.1785L2.3893 11.1816C2.38436 11.1719 2.37911 11.1624 2.37355 11.1531C2.27561 10.9889 2.09784 10.5777 1.98318 10.0273C1.86969 9.48241 1.82538 8.83536 1.96103 8.1917C2.24243 6.85646 3.01921 5.90124 3.3977 5.57272C3.39777 5.57266 3.39784 5.57259 3.39792 5.57253L8.47828 1.17547Z" stroke="#F37021" stroke-linejoin="round"/>
</g>
<path d="M10.4423 9.31078L7.68903 22.6211C7.62356 22.9376 7.871 23.2321 8.19402 23.2221L15.13 23.009C15.7407 22.9895 17.0944 22.6963 18.2857 21.7164C19.4771 20.7365 19.9872 19.2434 20.0637 18.7092L22.7151 6.0383C22.7815 5.72127 22.5335 5.42579 22.2097 5.43615L15.1362 5.66249C14.6279 5.64672 13.3279 5.84144 12.1943 6.74647C11.0607 7.6515 10.5539 8.83311 10.4423 9.31078Z" fill="#F37021"/>
<defs>
<linearGradient id="paint0_linear_901_55274" x1="8.59295" y1="24.8623" x2="8.59295" y2="0.862315" gradientUnits="userSpaceOnUse">
<stop stop-color="#01508E"/>
<stop offset="1" stop-color="#40ACC2"/>
</linearGradient>
</defs>
</svg>
