<svg width="20" height="20" viewBox="0 0 20 20" fill="none" xmlns="http://www.w3.org/2000/svg">
    <path fill-rule="evenodd" clip-rule="evenodd" d="M4.87994 3.01449C5.99183 2.27155 7.29907 1.875 8.63633 1.875V2.5L8.63637 1.875C10.4295 1.87511 12.1492 2.5875 13.4172 3.85546C14.6852 5.12342 15.3975 6.84312 15.3977 8.63629V8.63633C15.3977 9.97359 15.0011 11.2808 14.2582 12.3927C13.5152 13.5046 12.4593 14.3712 11.2238 14.883C9.98831 15.3947 8.62883 15.5286 7.31726 15.2677C6.00569 15.0069 4.80094 14.3629 3.85535 13.4173C2.90976 12.4717 2.26581 11.267 2.00492 9.9554C1.74403 8.64383 1.87793 7.28435 2.38968 6.04888C2.90143 4.81341 3.76804 3.75743 4.87994 3.01449ZM8.63633 3.125C10.098 3.1251 11.4998 3.70579 12.5333 4.73935C13.5669 5.7729 14.1476 7.17466 14.1477 8.63633M8.63629 3.125C7.54627 3.12501 6.48072 3.44824 5.5744 4.05383C4.66807 4.65942 3.96167 5.52017 3.54453 6.52723C3.12739 7.5343 3.01825 8.64244 3.2309 9.71153C3.44356 10.7806 3.96846 11.7627 4.73923 12.5334C5.51001 13.3042 6.49203 13.8291 7.56113 14.0418C8.63022 14.2544 9.73836 14.1453 10.7454 13.7281C11.7525 13.311 12.6132 12.6046 13.2188 11.6983C13.8244 10.7919 14.1477 9.72639 14.1477 8.63637" fill="white"></path>
    <path fill-rule="evenodd" clip-rule="evenodd" d="M12.7724 12.7724C13.0165 12.5283 13.4122 12.5283 13.6563 12.7724L17.9418 17.058C18.1859 17.302 18.1859 17.6978 17.9418 17.9418C17.6978 18.1859 17.302 18.1859 17.058 17.9418L12.7724 13.6563C12.5283 13.4122 12.5283 13.0165 12.7724 12.7724Z" fill="white"></path>
</svg>