<svg width="16" height="17" viewBox="0 0 16 17" fill="none" xmlns="http://www.w3.org/2000/svg">
<path d="M13 2.86279H3C2.46974 2.86337 1.96137 3.07427 1.58643 3.44922C1.21148 3.82417 1.00058 4.33254 1 4.86279V12.8628C1.00058 13.393 1.21148 13.9014 1.58643 14.2764C1.96137 14.6513 2.46974 14.8622 3 14.8628H13C13.5303 14.8622 14.0386 14.6513 14.4136 14.2764C14.7885 13.9014 14.9994 13.393 15 12.8628V4.86279C14.9994 4.33254 14.7885 3.82417 14.4136 3.44922C14.0386 3.07427 13.5303 2.86337 13 2.86279ZM10.5 4.86279C10.7967 4.86279 11.0867 4.95077 11.3334 5.11559C11.58 5.28041 11.7723 5.51468 11.8858 5.78877C11.9994 6.06286 12.0291 6.36446 11.9712 6.65543C11.9133 6.9464 11.7704 7.21367 11.5607 7.42345C11.3509 7.63323 11.0836 7.77609 10.7926 7.83397C10.5017 7.89185 10.2001 7.86214 9.92597 7.74861C9.65189 7.63508 9.41762 7.44282 9.2528 7.19615C9.08797 6.94947 9 6.65947 9 6.36279C9.00041 5.9651 9.15858 5.5838 9.4398 5.30259C9.72101 5.02137 10.1023 4.86321 10.5 4.86279ZM3 13.8628C2.73478 13.8628 2.48043 13.7574 2.29289 13.5699C2.10536 13.3824 2 13.128 2 12.8628V10.7494L4.96375 8.11498C5.2497 7.86137 5.62159 7.72633 6.00364 7.73736C6.38569 7.74839 6.74916 7.90467 7.02 8.17436L9.04969 10.1997L5.38656 13.8628H3ZM14 12.8628C14 13.128 13.8946 13.3824 13.7071 13.5699C13.5196 13.7574 13.2652 13.8628 13 13.8628H6.80094L10.5953 10.0684C10.864 9.83996 11.2049 9.7141 11.5575 9.71318C11.9102 9.71227 12.2517 9.83636 12.5216 10.0634L14 11.2953V12.8628Z" fill="#B795FF"/>
</svg>
