<svg width="16" height="17" viewBox="0 0 16 17" fill="none" xmlns="http://www.w3.org/2000/svg">
    <path d="M14.5 12.8746C14.36 12.8745 14.2216 12.845 14.0938 12.7881C14.064 12.7749 14.0356 12.7587 14.0091 12.7399L11.4244 10.9206C11.2933 10.8283 11.1863 10.7059 11.1125 10.5636C11.0386 10.4213 11 10.2634 11 10.1031V7.62182C11 7.46152 11.0386 7.30358 11.1125 7.1613C11.1863 7.01903 11.2933 6.8966 11.4244 6.80432L14.0091 4.98495C14.0356 4.96615 14.064 4.95003 14.0938 4.93682C14.246 4.86913 14.4128 4.84056 14.5789 4.8537C14.745 4.86684 14.9051 4.92127 15.0449 5.01206C15.1846 5.10284 15.2994 5.2271 15.3789 5.37354C15.4584 5.51998 15.5 5.68395 15.5 5.85057V11.8743C15.5 12.1395 15.3946 12.3939 15.2071 12.5814C15.0196 12.769 14.7652 12.8743 14.5 12.8743V12.8746Z" fill="#8ADEB6" />
    <path d="M8.375 13.3628H2.625C2.06159 13.3622 1.52143 13.1381 1.12304 12.7398C0.724648 12.3414 0.500579 11.8012 0.5 11.2378V6.48779C0.500579 5.92439 0.724648 5.38422 1.12304 4.98583C1.52143 4.58744 2.06159 4.36337 2.625 4.36279H8.39C8.9494 4.36345 9.48571 4.58597 9.88126 4.98153C10.2768 5.37709 10.4993 5.91339 10.5 6.47279V11.2378C10.4994 11.8012 10.2754 12.3414 9.87696 12.7398C9.47857 13.1381 8.93841 13.3622 8.375 13.3628Z" fill="#8ADEB6" />
</svg>