<svg width="16" height="17" viewBox="0 0 16 17" fill="none" xmlns="http://www.w3.org/2000/svg">
<path d="M11 2.74609C9.84001 2.74609 8.72668 3.28609 8.00001 4.13943C7.27334 3.28609 6.16001 2.74609 5.00001 2.74609C2.94668 2.74609 1.33334 4.35943 1.33334 6.41276C1.33334 8.93276 3.60001 10.9861 7.03334 14.1061L8.00001 14.9794L8.96668 14.0994C12.4 10.9861 14.6667 8.93276 14.6667 6.41276C14.6667 4.35943 13.0533 2.74609 11 2.74609ZM8.06668 13.1128L8.00001 13.1794L7.93334 13.1128C4.76001 10.2394 2.66668 8.33943 2.66668 6.41276C2.66668 5.07943 3.66668 4.07943 5.00001 4.07943C6.02668 4.07943 7.02668 4.73943 7.38001 5.65276L8.62668 5.65276C8.97334 4.73943 9.97334 4.07943 11 4.07943C12.3333 4.07943 13.3333 5.07943 13.3333 6.41276C13.3333 8.33943 11.24 10.2394 8.06668 13.1128Z" fill="#808080"/>
</svg>
